<svg width="100" height="100" viewBox="0 0 100 100" fill="none" xmlns="http://www.w3.org/2000/svg">
<path d="M100 0H0V100H100V0Z" fill="black"/>
<path d="M80 13.3333H20C16.3167 13.3333 13.3333 16.3167 13.3333 20V80C13.3333 83.6833 16.3167 86.6667 20 86.6667H80C83.6833 86.6667 86.6667 83.6833 86.6667 80V20C86.6667 16.3167 83.6833 13.3333 80 13.3333ZM36.5133 73.3333H26.68V41.6933H36.5133V73.3333ZM31.4967 37.17C28.3267 37.17 25.7633 34.6 25.7633 31.4367C25.7633 28.2733 28.33 25.7067 31.4967 25.7067C34.6567 25.7067 37.2267 28.2767 37.2267 31.4367C37.2267 34.6 34.6567 37.17 31.4967 37.17ZM73.3467 73.3333H63.52V57.9467C63.52 54.2767 63.4533 49.5567 58.41 49.5567C53.2933 49.5567 52.5067 53.5533 52.5067 57.68V73.3333H42.68V41.6933H52.1133V46.0167H52.2467C53.56 43.53 56.7666 40.9067 61.5499 40.9067C71.5066 40.9067 73.3467 47.4599 73.3467 55.9799V73.3333Z" fill="white"/>
</svg>
