<svg width="100" height="100" viewBox="0 0 100 100" fill="none" xmlns="http://www.w3.org/2000/svg">
<rect width="100" height="100" fill="white"/>
<path d="M50 10C27.91 10 10 27.91 10 50C10 68.7433 22.9067 84.4267 40.3067 88.7667C40.12 88.2267 40 87.6 40 86.8233V79.9867C38.3767 79.9867 35.6567 79.9867 34.9733 79.9867C32.2367 79.9867 29.8033 78.81 28.6233 76.6233C27.3133 74.1933 27.0867 70.4767 23.84 68.2033C22.8767 67.4467 23.61 66.5833 24.72 66.7C26.77 67.28 28.47 68.6867 30.07 70.7733C31.6633 72.8633 32.4133 73.3367 35.39 73.3367C36.8333 73.3367 38.9933 73.2533 41.0267 72.9333C42.12 70.1567 44.01 67.6 46.32 66.3933C33 65.0233 26.6433 58.3967 26.6433 49.4C26.6433 45.5267 28.2933 41.78 31.0967 38.6233C30.1767 35.49 29.02 29.1 31.45 26.6667C37.4433 26.6667 41.0667 30.5533 41.9367 31.6033C44.9233 30.58 48.2033 30 51.65 30C55.1033 30 58.3967 30.58 61.39 31.61C62.25 30.5667 65.8767 26.6667 71.8833 26.6667C74.3233 29.1033 73.1533 35.52 72.2233 38.6467C75.01 41.7967 76.65 45.5333 76.65 49.4C76.65 58.39 70.3033 65.0133 57.0033 66.39C60.6633 68.3 63.3333 73.6667 63.3333 77.71V86.8233C63.3333 87.17 63.2567 87.42 63.2167 87.7167C78.8033 82.2533 90 67.4533 90 50C90 27.91 72.09 10 50 10Z" fill="black"/>
</svg>
