<svg width="22" height="17" viewBox="0 0 22 17" fill="none" xmlns="http://www.w3.org/2000/svg">
<path d="M16.5 0.284668C14.55 0.284668 12.45 0.665529 11 1.7129C9.55 0.665529 7.45 0.284668 5.5 0.284668C4.05 0.284668 2.51 0.494142 1.22 1.03687C0.49 1.35108 0 2.02711 0 2.79835V13.5386C0 14.7764 1.22 15.6905 2.48 15.3858C3.46 15.1478 4.5 15.043 5.5 15.043C7.06 15.043 8.72 15.2906 10.06 15.919C10.66 16.2047 11.34 16.2047 11.93 15.919C13.27 15.2811 14.93 15.043 16.49 15.043C17.49 15.043 18.53 15.1478 19.51 15.3858C20.77 15.7 21.99 14.786 21.99 13.5386V2.79835C21.99 2.02711 21.5 1.35108 20.77 1.03687C19.49 0.494142 17.95 0.284668 16.5 0.284668ZM20 12.4056C20 13.0054 19.42 13.4434 18.8 13.3387C18.05 13.2054 17.27 13.1483 16.5 13.1483C14.8 13.1483 12.35 13.7672 11 14.5765V3.6172C12.35 2.80787 14.8 2.18897 16.5 2.18897C17.42 2.18897 18.33 2.27467 19.2 2.45558C19.66 2.55079 20 2.94117 20 3.38869V12.4056Z" fill="url(#paint0_linear_439_147)"/>
<path d="M12.98 6.48325C12.66 6.48325 12.37 6.29282 12.27 5.98813C12.14 5.61679 12.36 5.20736 12.75 5.09311C14.29 4.61703 16.28 4.46468 18.11 4.66464C18.52 4.71224 18.82 5.06454 18.77 5.45492C18.72 5.84531 18.35 6.13095 17.94 6.08334C16.32 5.90244 14.55 6.04526 13.21 6.45468C13.13 6.4642 13.05 6.48325 12.98 6.48325Z" fill="url(#paint1_linear_439_147)"/>
<path d="M12.98 9.01596C12.66 9.01596 12.37 8.82553 12.27 8.52084C12.14 8.1495 12.36 7.74008 12.75 7.62582C14.28 7.14974 16.28 6.9974 18.11 7.19735C18.52 7.24496 18.82 7.59726 18.77 7.98764C18.72 8.37802 18.35 8.66367 17.94 8.61606C16.32 8.43515 14.55 8.57797 13.21 8.9874C13.13 9.00644 13.05 9.01596 12.98 9.01596Z" fill="url(#paint2_linear_439_147)"/>
<path d="M12.98 11.5487C12.66 11.5487 12.37 11.3582 12.27 11.0536C12.14 10.6822 12.36 10.2728 12.75 10.1585C14.28 9.68246 16.28 9.53011 18.11 9.73007C18.52 9.77767 18.82 10.13 18.77 10.5204C18.72 10.9107 18.35 11.1869 17.94 11.1488C16.32 10.9679 14.55 11.1107 13.21 11.5201C13.13 11.5392 13.05 11.5487 12.98 11.5487Z" fill="url(#paint3_linear_439_147)"/>
<defs>
<linearGradient id="paint0_linear_439_147" x1="10.995" y1="0.284668" x2="10.995" y2="16.1333" gradientUnits="userSpaceOnUse">
<stop stop-color="#B629F8"/>
<stop offset="1" stop-color="#800ADD"/>
</linearGradient>
<linearGradient id="paint1_linear_439_147" x1="15.504" y1="4.57886" x2="15.504" y2="6.48325" gradientUnits="userSpaceOnUse">
<stop stop-color="#B629F8"/>
<stop offset="1" stop-color="#800ADD"/>
</linearGradient>
<linearGradient id="paint2_linear_439_147" x1="15.504" y1="7.11157" x2="15.504" y2="9.01596" gradientUnits="userSpaceOnUse">
<stop stop-color="#B629F8"/>
<stop offset="1" stop-color="#800ADD"/>
</linearGradient>
<linearGradient id="paint3_linear_439_147" x1="15.504" y1="9.64429" x2="15.504" y2="11.5487" gradientUnits="userSpaceOnUse">
<stop stop-color="#B629F8"/>
<stop offset="1" stop-color="#800ADD"/>
</linearGradient>
</defs>
</svg>
