<svg width="48" height="48" viewBox="0 0 48 48" fill="none" xmlns="http://www.w3.org/2000/svg">
<path fill-rule="evenodd" clip-rule="evenodd" d="M34.105 23.6818C34.0491 23.9368 33.913 24.1796 33.7067 24.3919C33.5005 24.6041 33.2295 24.7803 32.9141 24.9073C32.2788 25.1995 31.7231 25.3457 31.1607 25.4918C29.9631 25.7864 28.7026 26.081 27.3694 26.4228C25.9635 26.7644 24.703 27.1061 23.5782 27.3536C22.1755 27.6954 20.8423 27.9899 19.5752 28.3316C18.6219 28.6223 17.7265 29.001 16.9121 29.4582C16.1546 29.9471 15.4936 30.5068 14.9469 31.122C14.3846 31.8054 14.0306 32.6869 14.0306 33.7144C14.0306 35.7718 14.7319 37.3367 16.138 38.3148C17.5407 39.3446 20.141 39.8325 23.995 39.8325C27.9253 39.8325 30.5917 39.2951 32.001 38.2181C33.4004 37.1411 34.1017 35.6257 34.1017 33.6696V23.6818H34.105ZM23.9983 2C30.8795 2 35.9312 2.9309 39.1567 4.83985C42.3856 6.70166 44 9.09609 44 11.9336V36.1136C44 37.0916 43.7221 38.1686 43.2324 39.3423C42.7363 40.5206 41.757 41.5953 40.212 42.5709C38.7398 43.5537 36.7053 44.3857 34.1083 45.0219C31.5114 45.6583 28.1435 46 24.0017 46C19.8664 46 16.492 45.6583 13.8982 45.0219C11.3046 44.3857 9.26674 43.5537 7.79455 42.5709C6.42504 41.6918 5.38752 40.5816 4.77746 39.3423C4.28116 38.1709 4 37.0939 4 36.116V32.2509C4 30.1935 4.77078 28.2845 6.3158 26.6183C7.8607 24.9073 10.0342 23.7337 12.8429 22.9984C14.2456 22.6566 15.86 22.315 17.6829 21.8743C19.509 21.4311 21.1897 20.9905 22.8768 20.6016C24.564 20.208 26.0362 19.8145 27.2967 19.4704C28.0573 19.2536 28.8299 19.0586 29.6124 18.8859L30.8762 18.4452C31.3724 18.2496 31.8587 17.955 32.3517 17.5638C32.8413 17.175 33.2614 16.7342 33.6154 16.244C33.9894 15.7132 34.1821 15.1269 34.1778 14.533V12.9658C34.183 12.3914 34.0138 11.823 33.6815 11.2996C33.4037 10.7104 32.8413 10.1731 32.0705 9.68527C31.2996 9.19507 30.2443 8.80386 28.9839 8.50691C27.7201 8.21704 26.0395 8.06856 24.1406 8.06856C20.2103 8.06856 17.6134 8.61061 16.2107 9.7324C15.0198 10.7128 14.3185 11.9359 14.1795 13.3052C14.1795 13.5998 13.8287 13.7954 13.4054 13.7954L4.84695 13.8944C4.64364 13.895 4.44818 13.8384 4.30316 13.7369C4.15827 13.6353 4.0754 13.4971 4.07283 13.3524V11.9383C4.07283 10.5643 4.42682 9.2917 5.19759 8.06856C5.97171 6.84306 7.16597 5.81789 8.77713 4.93412C10.3915 4.05507 12.4989 3.32212 15.0231 2.83192C17.4811 2.24274 20.4982 2 24.0049 2H23.9983Z" fill="#0A3871"/>
</svg>
